<?xml version="1.0" encoding="utf-8"?>
<!-- Generator: Adobe Illustrator 27.5.0, SVG Export Plug-In . SVG Version: 6.00 Build 0)  -->
<svg version="1.1" id="Capa_1" xmlns="http://www.w3.org/2000/svg" xmlns:xlink="http://www.w3.org/1999/xlink" x="0px" y="0px"
	 viewBox="0 0 425.196 425.197" style="enable-background:new 0 0 425.196 425.197;" xml:space="preserve">
<g>
	<rect x="-0.001" y="0" style="fill:#FCBC00;" width="425.196" height="425.197"/>
	<g>
		<g>
			<path style="fill:#FFFFFF;" d="M371.621,254.176c0,0,7.982-1.152,9.842-3.573c1.861-2.42,3.574-9.843,3.574-9.843
				s0.44,7.124,3.572,9.843c3.134,2.716,9.842,3.573,9.842,3.573s-7.697,0.154-9.842,3.574c-2.145,3.42-3.572,9.841-3.572,9.841
				s-0.725-7.553-3.574-9.841C378.613,255.461,371.621,254.176,371.621,254.176z"/>
			<path style="fill:#FFFFFF;" d="M341.3,251.199c0,0,3.639,1.282,4.969,0.67c1.325-0.614,3.699-3.384,3.699-3.384
				s-1.397,3.122-0.669,4.969c0.725,1.846,3.378,3.699,3.378,3.699s-3.295-1.643-4.962-0.667c-1.671,0.973-3.703,3.38-3.703,3.38
				s1.371-3.364,0.667-4.967C343.983,253.295,341.3,251.199,341.3,251.199z"/>
			<path style="fill:#FFFFFF;" d="M399.592,208.028c0,0,1.39-1.402,1.393-2.148c0.006-0.749-0.751-2.449-0.751-2.449
				s1.134,1.326,2.145,1.393c1.016,0.066,2.449-0.757,2.449-0.757s-1.477,1.166-1.392,2.152c0.083,0.982,0.755,2.447,0.755,2.447
				s-1.258-1.368-2.146-1.393C401.147,207.248,399.592,208.028,399.592,208.028z"/>
			<path style="fill:#FFFFFF;" d="M354.902,222.971c0,0,1.113-0.161,1.377-0.499c0.255-0.34,0.499-1.372,0.499-1.372
				s0.06,0.994,0.495,1.372c0.438,0.38,1.374,0.499,1.374,0.499s-1.076,0.022-1.374,0.498c-0.297,0.479-0.495,1.375-0.495,1.375
				s-0.102-1.055-0.499-1.375C355.879,223.152,354.902,222.971,354.902,222.971z"/>
			<path style="fill:#FFFFFF;" d="M372.309,331.352c0,0,3.639,1.284,4.967,0.668c1.328-0.612,3.695-3.38,3.695-3.38
				s-1.392,3.118-0.669,4.967c0.73,1.847,3.384,3.7,3.384,3.7s-3.295-1.643-4.968-0.667c-1.668,0.972-3.694,3.379-3.694,3.379
				s1.366-3.363,0.664-4.966C374.987,333.448,372.309,331.352,372.309,331.352z"/>
			<path style="fill:#FFFFFF;" d="M409.424,321.945c0,0,1.387-1.404,1.391-2.148c0.009-0.75-0.751-2.451-0.751-2.451
				s1.138,1.326,2.146,1.392c1.015,0.068,2.448-0.755,2.448-0.755s-1.479,1.166-1.395,2.151c0.086,0.983,0.762,2.448,0.762,2.448
				s-1.259-1.368-2.153-1.392C410.977,321.164,409.424,321.945,409.424,321.945z"/>
			<path style="fill:#FFFFFF;" d="M354.156,281.868c0,0,1.391-1.405,1.395-2.151c0.003-0.747-0.755-2.448-0.755-2.448
				s1.136,1.325,2.15,1.392c1.01,0.066,2.446-0.758,2.446-0.758s-1.478,1.168-1.395,2.151c0.086,0.984,0.757,2.447,0.757,2.447
				s-1.257-1.367-2.15-1.391C355.715,281.083,354.156,281.868,354.156,281.868z"/>
			<path style="fill:#FFFFFF;" d="M367.928,301.992c0,0,1.113-0.16,1.371-0.498c0.26-0.337,0.5-1.373,0.5-1.373
				s0.063,0.992,0.496,1.373c0.439,0.379,1.377,0.498,1.377,0.498s-1.075,0.02-1.377,0.5c-0.298,0.478-0.496,1.373-0.496,1.373
				s-0.101-1.054-0.5-1.373C368.9,302.17,367.928,301.992,367.928,301.992z"/>
			<path style="fill:#FFFFFF;" d="M410.782,242.68c0,0,0.867,0.718,1.29,0.686c0.432-0.036,1.357-0.552,1.357-0.552
				s-0.697,0.711-0.685,1.289c0.014,0.58,0.555,1.353,0.555,1.353s-0.737-0.782-1.291-0.683c-0.558,0.098-1.353,0.553-1.353,0.553
				s0.714-0.784,0.681-1.291C411.305,243.526,410.782,242.68,410.782,242.68z"/>
			<path style="fill:#FFFFFF;" d="M398.336,292.864c0,0,0.871,0.716,1.296,0.683c0.422-0.036,1.35-0.553,1.35-0.553
				s-0.694,0.715-0.683,1.293c0.014,0.58,0.551,1.352,0.551,1.352s-0.733-0.782-1.291-0.684c-0.558,0.099-1.353,0.552-1.353,0.552
				s0.714-0.783,0.686-1.291C398.862,293.708,398.336,292.864,398.336,292.864z"/>
		</g>
		<g>
			<path style="fill:#FFFFFF;" d="M346.351,91.461c0,0,1.581-7.908-0.079-10.47c-1.659-2.564-8.075-6.661-8.075-6.661
				s6.857,1.971,10.464-0.074c3.615-2.044,6.663-8.079,6.663-8.079s-2.429,7.304,0.076,10.47c2.505,3.166,8.08,6.661,8.08,6.661
				s-7.361-1.844-10.472,0.074C349.898,85.302,346.351,91.461,346.351,91.461z"/>
			<path style="fill:#FFFFFF;" d="M270.311,136.902c0,0,2.425-3.003,2.287-4.457c-0.13-1.454-1.944-4.619-1.944-4.619
				s2.473,2.357,4.456,2.293c1.985-0.067,4.62-1.948,4.62-1.948s-2.651,2.556-2.295,4.458c0.363,1.899,1.95,4.617,1.95,4.617
				s-2.716-2.416-4.459-2.292C273.181,135.077,270.311,136.902,270.311,136.902z"/>
			<path style="fill:#FFFFFF;" d="M244.823,54.242c0,0-0.858-1.777-1.559-2.033c-0.703-0.255-2.56-0.104-2.56-0.104
				s1.624-0.628,2.028-1.56c0.401-0.934,0.108-2.561,0.108-2.561s0.6,1.783,1.559,2.03c0.957,0.25,2.561,0.107,2.561,0.107
				s-1.709,0.727-2.032,1.563C244.605,52.517,244.823,54.242,244.823,54.242z"/>
			<path style="fill:#FFFFFF;" d="M226.725,91.746c0,0,0.224-1.104-0.013-1.461c-0.229-0.358-1.129-0.93-1.129-0.93
				s0.96,0.275,1.464-0.011c0.504-0.287,0.928-1.128,0.928-1.128s-0.339,1.021,0.013,1.463c0.348,0.44,1.129,0.929,1.129,0.929
				s-1.026-0.258-1.464,0.009C227.22,90.887,226.725,91.746,226.725,91.746z"/>
			<path style="fill:#FFFFFF;" d="M341.419,156.214c0,0,2.426-3.001,2.293-4.456c-0.135-1.457-1.95-4.619-1.95-4.619
				s2.474,2.359,4.455,2.292c1.985-0.067,4.621-1.948,4.621-1.948s-2.653,2.559-2.289,4.458c0.354,1.899,1.946,4.618,1.946,4.618
				s-2.714-2.416-4.458-2.292C344.291,154.389,341.419,156.214,341.419,156.214z"/>
			<path style="fill:#FFFFFF;" d="M392.578,93.561c0,0-0.857-1.777-1.562-2.032c-0.703-0.255-2.558-0.106-2.558-0.106
				s1.631-0.629,2.029-1.562c0.398-0.931,0.107-2.559,0.107-2.559s0.603,1.785,1.554,2.031c0.964,0.249,2.566,0.107,2.566,0.107
				s-1.71,0.726-2.031,1.559C392.362,91.831,392.578,93.561,392.578,93.561z"/>
			<path style="fill:#FFFFFF;" d="M305.983,121.282c0,0-0.86-1.775-1.56-2.031c-0.707-0.254-2.563-0.106-2.563-0.106
				s1.634-0.63,2.029-1.561c0.404-0.933,0.106-2.559,0.106-2.559s0.606,1.783,1.565,2.03c0.952,0.25,2.561,0.107,2.561,0.107
				s-1.712,0.728-2.033,1.56C305.767,119.559,305.983,121.282,305.983,121.282z"/>
			<path style="fill:#FFFFFF;" d="M362.141,107.896c0,0,0.22-1.104-0.01-1.464c-0.236-0.357-1.13-0.929-1.13-0.929
				s0.959,0.276,1.464-0.011c0.5-0.284,0.928-1.128,0.928-1.128s-0.341,1.019,0.009,1.461c0.352,0.444,1.127,0.931,1.127,0.931
				s-1.024-0.258-1.463,0.011C362.635,107.034,362.141,107.896,362.141,107.896z"/>
			<path style="fill:#FFFFFF;" d="M299.834,59.516c0,0,0.965-0.576,1.077-0.989c0.108-0.413-0.071-1.458-0.071-1.458
				s0.442,0.894,0.99,1.074c0.554,0.182,1.459-0.068,1.459-0.068s-0.982,0.436-1.073,0.989c-0.095,0.557,0.065,1.461,0.065,1.461
				s-0.498-0.934-0.986-1.078C300.802,59.306,299.834,59.516,299.834,59.516z"/>
			<path style="fill:#FFFFFF;" d="M340.057,49.771c0,0,0.963-0.576,1.074-0.988c0.108-0.412-0.07-1.46-0.07-1.46
				s0.441,0.894,0.988,1.076c0.552,0.181,1.459-0.068,1.459-0.068s-0.98,0.434-1.073,0.987c-0.089,0.556,0.066,1.461,0.066,1.461
				s-0.498-0.934-0.988-1.075C341.023,49.561,340.057,49.771,340.057,49.771z"/>
		</g>
		<g>
			<path style="fill:#FFFFFF;" d="M120.541,95.845c0,0-6.553-4.696-7.091-7.701c-0.54-3.004,1.355-10.382,1.355-10.382
				s-3.67,6.126-7.705,7.094c-4.028,0.97-10.379-1.355-10.379-1.355s6.76,3.678,7.094,7.7c0.332,4.023-1.358,10.384-1.358,10.384
				s4.119-6.372,7.706-7.097C113.74,93.769,120.541,95.845,120.541,95.845z"/>
			<path style="fill:#FFFFFF;" d="M148.836,107.155c0,0-3.825-0.537-4.718-1.692c-0.897-1.157-1.729-4.705-1.729-4.705
				s-0.198,3.411-1.695,4.718c-1.494,1.304-4.704,1.728-4.704,1.728s3.687,0.058,4.72,1.692c1.03,1.635,1.729,4.704,1.729,4.704
				s0.329-3.617,1.692-4.716C145.487,107.783,148.836,107.155,148.836,107.155z"/>
			<path style="fill:#FFFFFF;" d="M116.939,42.003c0,0-0.585-1.883-0.246-2.549c0.336-0.665,1.797-1.826,1.797-1.826
				s-1.615,0.654-2.549,0.249c-0.929-0.408-1.823-1.8-1.823-1.8s0.775,1.716,0.244,2.551c-0.527,0.834-1.795,1.824-1.795,1.824
				s1.744-0.635,2.552-0.246C115.922,40.595,116.939,42.003,116.939,42.003z"/>
			<path style="fill:#FFFFFF;" d="M149.747,75.832c0,0-0.917-0.652-0.994-1.073c-0.075-0.421,0.193-1.45,0.193-1.45
				s-0.511,0.854-1.075,0.99c-0.564,0.134-1.452-0.191-1.452-0.191s0.944,0.516,0.994,1.076c0.04,0.563-0.194,1.45-0.194,1.45
				s0.576-0.89,1.078-0.991C148.794,75.542,149.747,75.832,149.747,75.832z"/>
			<path style="fill:#FFFFFF;" d="M84.422,164.051c0,0-3.823-0.536-4.717-1.692c-0.898-1.156-1.731-4.704-1.731-4.704
				s-0.192,3.412-1.691,4.719c-1.495,1.306-4.702,1.729-4.702,1.729s3.687,0.06,4.717,1.692c1.036,1.632,1.729,4.705,1.729,4.705
				s0.331-3.618,1.692-4.719C81.078,164.679,84.422,164.051,84.422,164.051z"/>
			<path style="fill:#FFFFFF;" d="M55.799,138.618c0,0-0.587-1.883-0.252-2.546c0.347-0.668,1.799-1.827,1.799-1.827
				s-1.618,0.652-2.547,0.247c-0.93-0.407-1.825-1.798-1.825-1.798s0.772,1.717,0.246,2.549c-0.529,0.833-1.8,1.826-1.8,1.826
				s1.747-0.637,2.551-0.244C54.778,137.211,55.799,138.618,55.799,138.618z"/>
			<path style="fill:#FFFFFF;" d="M123.307,128.465c0,0-0.585-1.882-0.247-2.548c0.338-0.666,1.796-1.827,1.796-1.827
				s-1.615,0.654-2.549,0.249c-0.929-0.408-1.821-1.797-1.821-1.797s0.772,1.714,0.242,2.545c-0.529,0.836-1.8,1.827-1.8,1.827
				s1.753-0.633,2.553-0.244C122.288,127.058,123.307,128.465,123.307,128.465z"/>
			<path style="fill:#FFFFFF;" d="M101.823,140.001c0,0-0.915-0.656-0.993-1.076c-0.077-0.42,0.189-1.448,0.189-1.448
				s-0.508,0.854-1.07,0.991c-0.564,0.133-1.454-0.19-1.454-0.19s0.944,0.511,0.99,1.076c0.048,0.56-0.19,1.446-0.19,1.446
				s0.578-0.888,1.078-0.989C100.869,139.709,101.823,140.001,101.823,140.001z"/>
			<path style="fill:#FFFFFF;" d="M91.062,67.621c0,0-1.102,0.239-1.463,0.01c-0.358-0.226-0.947-1.111-0.947-1.111
				s0.29,0.954,0.016,1.461c-0.278,0.506-1.116,0.945-1.116,0.945s1.015-0.354,1.462-0.011c0.446,0.343,0.947,1.114,0.947,1.114
				s-0.272-1.025-0.01-1.462C90.21,68.129,91.062,67.621,91.062,67.621z"/>
			<path style="fill:#FFFFFF;" d="M79.02,117.901c0,0-1.096,0.239-1.458,0.015c-0.361-0.229-0.947-1.115-0.947-1.115
				s0.29,0.954,0.013,1.46c-0.275,0.511-1.116,0.948-1.116,0.948s1.017-0.356,1.463-0.014c0.45,0.344,0.945,1.114,0.945,1.114
				s-0.27-1.024-0.008-1.459C78.172,118.408,79.02,117.901,79.02,117.901z"/>
		</g>
		<g>
			<path style="fill:#FFFFFF;" d="M46.803,238.444c0,0-4.05-6.974-3.305-9.936c0.745-2.96,5.501-8.906,5.501-8.906
				s-5.858,4.075-9.934,3.301c-4.077-0.771-8.913-5.499-8.913-5.499s4.654,6.132,3.309,9.933c-1.352,3.805-5.502,8.91-5.502,8.91
				s6.369-4.117,9.935-3.302C41.459,233.758,46.803,238.444,46.803,238.444z"/>
			<path style="fill:#FFFFFF;" d="M107.526,264.967c0,0-3.264-2.06-3.606-3.481c-0.339-1.422,0.354-5,0.354-5
				s-1.575,3.03-3.475,3.607c-1.898,0.577-5.005-0.356-5.005-0.356s3.34,1.564,3.608,3.479c0.273,1.914-0.354,5-0.354,5
				s1.791-3.16,3.479-3.606C104.217,264.164,107.526,264.967,107.526,264.967z"/>
			<path style="fill:#FFFFFF;" d="M105.013,178.503c0,0,0.243-1.958,0.823-2.425c0.584-0.467,2.387-0.925,2.387-0.925
				s-1.743-0.07-2.424-0.823c-0.681-0.753-0.928-2.391-0.928-2.391s0.004,1.886-0.822,2.427c-0.826,0.545-2.386,0.926-2.386,0.926
				s1.852,0.138,2.424,0.821C104.661,176.797,105.013,178.503,105.013,178.503z"/>
			<path style="fill:#FFFFFF;" d="M134.236,208.174c0,0-0.564-0.976-0.463-1.388c0.104-0.413,0.768-1.244,0.768-1.244
				s-0.816,0.567-1.389,0.462c-0.566-0.109-1.241-0.769-1.241-0.769s0.65,0.855,0.458,1.388c-0.189,0.532-0.767,1.244-0.767,1.244
				s0.888-0.575,1.388-0.462C133.488,207.52,134.236,208.174,134.236,208.174z"/>
			<path style="fill:#FFFFFF;" d="M46.436,306.167c0,0-3.268-2.061-3.606-3.482c-0.336-1.422,0.356-5,0.356-5
				s-1.58,3.032-3.48,3.608c-1.898,0.575-5.001-0.357-5.001-0.357s3.336,1.566,3.609,3.48c0.269,1.913-0.354,4.999-0.354,4.999
				s1.783-3.16,3.479-3.605C43.128,305.363,46.436,306.167,46.436,306.167z"/>
			<path style="fill:#FFFFFF;" d="M32.894,372.449c0,0,0.24-1.959,0.822-2.424c0.584-0.469,2.388-0.927,2.388-0.927
				s-1.744-0.071-2.423-0.824c-0.684-0.753-0.928-2.388-0.928-2.388s0.005,1.882-0.825,2.425c-0.825,0.542-2.385,0.925-2.385,0.925
				s1.85,0.137,2.428,0.825C32.544,370.746,32.894,372.449,32.894,372.449z"/>
			<path style="fill:#FFFFFF;" d="M68.723,261.677c0,0,0.243-1.959,0.824-2.427c0.581-0.466,2.392-0.924,2.392-0.924
				s-1.747-0.07-2.431-0.823c-0.678-0.753-0.923-2.388-0.923-2.388s0.003,1.881-0.822,2.425c-0.827,0.544-2.39,0.925-2.39,0.925
				s1.852,0.138,2.426,0.822C68.375,259.974,68.723,261.677,68.723,261.677z"/>
			<path style="fill:#FFFFFF;" d="M11.251,267.102c0,0-0.567-0.975-0.463-1.388c0.103-0.413,0.771-1.242,0.771-1.242
				s-0.822,0.567-1.387,0.458c-0.573-0.107-1.248-0.766-1.248-0.766s0.652,0.852,0.463,1.386c-0.186,0.532-0.769,1.243-0.769,1.243
				s0.891-0.574,1.385-0.461C10.502,266.445,11.251,267.102,11.251,267.102z"/>
			<path style="fill:#FFFFFF;" d="M54.639,201.224c0,0-1.102-0.235-1.339-0.591c-0.237-0.352-0.406-1.401-0.406-1.401
				s-0.129,0.989-0.591,1.336c-0.46,0.35-1.402,0.408-1.402,0.408s1.07,0.091,1.34,0.587c0.263,0.495,0.4,1.406,0.4,1.406
				s0.175-1.047,0.593-1.338C53.654,201.338,54.639,201.224,54.639,201.224z"/>
			<path style="fill:#FFFFFF;" d="M13.424,204.96c0,0-1.1-0.236-1.337-0.588c-0.236-0.354-0.406-1.404-0.406-1.404
				s-0.128,0.988-0.587,1.337c-0.463,0.349-1.409,0.406-1.409,0.406s1.073,0.091,1.341,0.588c0.264,0.497,0.402,1.405,0.402,1.405
				s0.175-1.045,0.591-1.337C12.436,205.073,13.424,204.96,13.424,204.96z"/>
		</g>
	</g>
	<path style="fill:#F49512;" d="M139.725,280.275c0,4.409-14.883,7.983-33.241,7.983c-18.36,0-33.244-3.574-33.244-7.983
		c0-4.409,14.884-7.983,33.244-7.983C124.842,272.292,139.725,275.866,139.725,280.275z"/>
	<path style="fill:#F49512;" d="M293.588,295.695c0,4.409-23.594,7.983-52.697,7.983c-29.103,0-52.694-3.574-52.694-7.983
		c0-4.409,23.592-7.983,52.694-7.983C269.994,287.712,293.588,291.286,293.588,295.695z"/>
	<path style="fill:#F49512;" d="M384.679,263.186c0,4.409-23.593,7.983-52.695,7.983c-29.103,0-52.695-3.574-52.695-7.983
		c0-4.409,23.593-7.983,52.695-7.983C361.086,255.203,384.679,258.777,384.679,263.186z"/>
	<path style="fill:#F49512;" d="M345.805,376.733c0,4.409-50.236,7.983-112.206,7.983c-61.968,0-112.205-3.574-112.205-7.983
		c0-4.409,50.237-7.983,112.205-7.983C295.568,368.75,345.805,372.324,345.805,376.733z"/>
	<path style="fill:#F49512;" d="M169.951,234.311c0,4.409-31.533,7.983-70.432,7.983c-38.898,0-70.43-3.574-70.43-7.983
		c0-4.409,31.531-7.983,70.43-7.983C138.418,226.328,169.951,229.902,169.951,234.311z"/>
	<g>
		<g>
			
				<polygon style="fill:#F6A654;stroke:#3B1151;stroke-width:1.7977;stroke-linecap:round;stroke-linejoin:round;stroke-miterlimit:10;" points="
				351.522,89.859 287.768,108.664 262.628,169.275 358.11,208.879 383.25,148.268 			"/>
			
				<line style="fill:none;stroke:#3B1151;stroke-width:1.7977;stroke-linecap:round;stroke-linejoin:round;stroke-miterlimit:10;" x1="287.768" y1="108.664" x2="304.373" y2="115.552"/>
			
				<line style="fill:none;stroke:#3B1151;stroke-width:1.7977;stroke-linecap:round;stroke-linejoin:round;stroke-miterlimit:10;" x1="309.771" y1="117.791" x2="312.677" y2="118.997"/>
			
				<line style="fill:none;stroke:#3B1151;stroke-width:1.7977;stroke-linecap:round;stroke-linejoin:round;stroke-miterlimit:10;" x1="317.243" y1="120.89" x2="352.114" y2="135.355"/>
			
				<line style="fill:none;stroke:#3B1151;stroke-width:1.7977;stroke-linecap:round;stroke-linejoin:round;stroke-miterlimit:10;" x1="359.588" y1="138.454" x2="365.399" y2="140.864"/>
			
				<line style="fill:none;stroke:#3B1151;stroke-width:1.7977;stroke-linecap:round;stroke-linejoin:round;stroke-miterlimit:10;" x1="372.041" y1="143.62" x2="383.25" y2="148.268"/>
			
				<rect x="289.957" y="101.996" transform="matrix(0.3831 -0.9237 0.9237 0.3831 78.2619 391.1432)" style="fill:#FFFFFF;stroke:#3B1151;stroke-width:1.6738;stroke-linecap:round;stroke-linejoin:round;stroke-miterlimit:10;" width="84.044" height="69.963"/>
			
				<polygon style="fill:#E68D4C;stroke:#3B1151;stroke-width:1.7977;stroke-linecap:round;stroke-linejoin:round;stroke-miterlimit:10;" points="
				358.11,208.879 262.628,169.275 287.768,108.664 321.389,162.508 383.25,148.268 			"/>
			
				<polygon style="fill:#F6A654;stroke:#3B1151;stroke-width:1.7977;stroke-linecap:round;stroke-linejoin:round;stroke-miterlimit:10;" points="
				358.11,208.879 262.628,169.275 326.382,150.469 			"/>
			<polygon style="opacity:0.5;fill:#FDE2CB;" points="343.988,192.155 324.201,155.727 284.44,167.456 			"/>
			
				<rect x="340.079" y="82.543" transform="matrix(0.3831 -0.9237 0.9237 0.3831 109.2635 385.7701)" style="fill:#3B1151;" width="6.742" height="57.077"/>
			
				<rect x="337.761" y="92.194" transform="matrix(0.3831 -0.9237 0.9237 0.3831 97.8752 388.0234)" style="fill:#3B1151;" width="3.371" height="57.079"/>
			
				<rect x="335.092" y="98.629" transform="matrix(0.3831 -0.9237 0.9237 0.3831 90.2837 389.5262)" style="fill:#3B1151;" width="3.371" height="57.078"/>
			
				<rect x="332.423" y="105.064" transform="matrix(0.3831 -0.9237 0.9237 0.3831 82.6914 391.0284)" style="fill:#3B1151;" width="3.371" height="57.078"/>
			
				<rect x="314.186" y="121.895" transform="matrix(0.3831 -0.9237 0.9237 0.3831 71.4618 374.168)" style="fill:#3B1151;" width="3.37" height="23.371"/>
		</g>
		<g>
			
				<path style="fill:#DADADA;stroke:#3B1151;stroke-width:1.5696;stroke-linecap:round;stroke-linejoin:round;stroke-miterlimit:10;" d="
				M338.831,182.254c-23.424,0-42.413,18.989-42.413,42.413c0,23.424,18.989,42.413,42.413,42.413
				c23.425,0,42.413-18.989,42.413-42.413C381.244,201.243,362.256,182.254,338.831,182.254z M338.831,234.118
				c-5.22,0-9.45-4.231-9.45-9.451c0-5.219,4.23-9.451,9.45-9.451c5.22,0,9.451,4.232,9.451,9.451
				C348.282,229.886,344.051,234.118,338.831,234.118z"/>
			
				<path style="fill:#F39200;stroke:#3B1151;stroke-width:1.5696;stroke-linecap:round;stroke-linejoin:round;stroke-miterlimit:10;" d="
				M338.831,203.51c-11.685,0-21.157,9.471-21.157,21.157c0,11.685,9.473,21.157,21.157,21.157c11.685,0,21.157-9.472,21.157-21.157
				C359.988,212.981,350.516,203.51,338.831,203.51z M338.831,234.118c-5.22,0-9.45-4.231-9.45-9.451c0-5.219,4.23-9.451,9.45-9.451
				c5.22,0,9.451,4.232,9.451,9.451C348.282,229.886,344.051,234.118,338.831,234.118z"/>
			<path style="fill:#FFFFFF;" d="M381.24,224.665c0,2.496-0.212,4.945-0.628,7.323l-32.475-5.69
				c0.094-0.533,0.141-1.074,0.141-1.633c0-0.557-0.047-1.099-0.141-1.633l32.475-5.689
				C381.022,219.722,381.24,222.17,381.24,224.665z"/>
			<path style="fill:#FFFFFF;" d="M379.592,236.413c-0.461,1.601-1.012,3.163-1.654,4.678l-30.397-12.769
				c0.142-0.338,0.266-0.683,0.367-1.037L379.592,236.413z"/>
			<path style="fill:#FFFFFF;" d="M329.381,224.665c0,0.559,0.047,1.1,0.142,1.633l-32.476,5.69
				c-0.416-2.378-0.629-4.827-0.629-7.323c0-2.495,0.22-4.943,0.629-7.322l32.476,5.689
				C329.428,223.566,329.381,224.108,329.381,224.665z"/>
			<path style="fill:#FFFFFF;" d="M330.118,221.009c-0.142,0.337-0.268,0.683-0.368,1.035l-31.685-9.127
				c0.464-1.601,1.014-3.163,1.656-4.677L330.118,221.009z"/>
			
				<path style="fill:none;stroke:#3B1151;stroke-width:1.5696;stroke-linecap:round;stroke-linejoin:round;stroke-miterlimit:10;" d="
				M331.694,191.442c-9.038,1.931-16.742,7.457-21.547,15.006"/>
			
				<path style="fill:none;stroke:#3B1151;stroke-width:1.5696;stroke-linecap:round;stroke-linejoin:round;stroke-miterlimit:10;" d="
				M357.827,196.494c-5.423-3.665-11.959-5.803-18.996-5.803"/>
			
				<path style="fill:none;stroke:#3B1151;stroke-width:1.5696;stroke-linecap:round;stroke-linejoin:round;stroke-miterlimit:10;" d="
				M372.725,222.281c-0.569-8.203-4.051-15.604-9.416-21.177"/>
			
				<path style="fill:none;stroke:#3B1151;stroke-width:1.5696;stroke-linecap:round;stroke-linejoin:round;stroke-miterlimit:10;" d="
				M365.519,245.697c3.888-4.928,6.44-10.958,7.112-17.544"/>
			
				<path style="fill:none;stroke:#3B1151;stroke-width:1.5696;stroke-linecap:round;stroke-linejoin:round;stroke-miterlimit:10;" d="
				M338.831,258.643c8.117,0,15.57-2.847,21.414-7.597"/>
			
				<path style="fill:none;stroke:#3B1151;stroke-width:1.5696;stroke-linecap:round;stroke-linejoin:round;stroke-miterlimit:10;" d="
				M313.894,247.743c4.73,5.108,11.009,8.76,18.09,10.21"/>
			
				<path style="fill:none;stroke:#3B1151;stroke-width:1.5696;stroke-linecap:round;stroke-linejoin:round;stroke-miterlimit:10;" d="
				M308.457,239.911c0.77,1.528,1.65,2.991,2.633,4.376"/>
			
				<path style="fill:none;stroke:#3B1151;stroke-width:1.5696;stroke-linecap:round;stroke-linejoin:round;stroke-miterlimit:10;" d="
				M304.854,224.667c0,3.939,0.671,7.723,1.903,11.24"/>
			
				<path style="fill:none;stroke:#3B1151;stroke-width:1.5696;stroke-linecap:round;stroke-linejoin:round;stroke-miterlimit:10;" d="
				M361.186,210.054c-3.975-6.091-10.214-10.188-17.119-11.581"/>
			
				<path style="fill:none;stroke:#3B1151;stroke-width:1.5696;stroke-linecap:round;stroke-linejoin:round;stroke-miterlimit:10;" d="
				M364.871,230.679c1.157-5.02,0.878-10.427-1.113-15.595"/>
			
				<path style="fill:none;stroke:#3B1151;stroke-width:1.5696;stroke-linecap:round;stroke-linejoin:round;stroke-miterlimit:10;" d="
				M350.145,248.918c5.863-2.739,10.316-7.389,12.891-12.909"/>
			
				<path style="fill:none;stroke:#3B1151;stroke-width:1.5696;stroke-linecap:round;stroke-linejoin:round;stroke-miterlimit:10;" d="
				M330.906,250.251c4.719,1.461,9.871,1.631,14.898,0.26"/>
			
				<path style="fill:none;stroke:#3B1151;stroke-width:1.5696;stroke-linecap:round;stroke-linejoin:round;stroke-miterlimit:10;" d="
				M313.845,234.311c2.296,5.962,6.497,10.631,11.64,13.58"/>
			
				<path style="fill:none;stroke:#3B1151;stroke-width:1.5696;stroke-linecap:round;stroke-linejoin:round;stroke-miterlimit:10;" d="
				M314.797,212.91c-2.416,4.919-3.322,10.564-2.383,16.176"/>
			
				<path style="fill:none;stroke:#3B1151;stroke-width:1.5696;stroke-linecap:round;stroke-linejoin:round;stroke-miterlimit:10;" d="
				M319.01,206.701c-0.906,0.997-1.729,2.058-2.47,3.171"/>
			
				<path style="fill:none;stroke:#3B1151;stroke-width:1.5696;stroke-linecap:round;stroke-linejoin:round;stroke-miterlimit:10;" d="
				M329.188,199.741c-2.893,1.114-5.482,2.677-7.718,4.578"/>
		</g>
		<g>
			
				<rect x="41.944" y="146.785" style="fill:#D63051;stroke:#3B1151;stroke-width:2.3699;stroke-linecap:round;stroke-linejoin:round;stroke-miterlimit:10;" width="111.979" height="72.875"/>
			
				<path style="fill:#FFFFFF;stroke:#3B1151;stroke-width:2.3699;stroke-linecap:round;stroke-linejoin:round;stroke-miterlimit:10;" d="
				M119.263,183.222c0,11.78-9.548,21.329-21.329,21.329c-11.781,0-21.33-9.549-21.33-21.329c0-11.78,9.549-21.329,21.33-21.329
				C109.715,161.893,119.263,171.442,119.263,183.222z"/>
			
				<polygon style="fill:#D63051;stroke:#3B1151;stroke-width:2.3699;stroke-linecap:round;stroke-linejoin:round;stroke-miterlimit:10;" points="
				111.116,183.222 91.86,194.183 91.86,172.261 			"/>
			
				<rect x="41.944" y="219.659" style="fill:#DADADA;stroke:#3B1151;stroke-width:2.3699;stroke-linecap:round;stroke-linejoin:round;stroke-miterlimit:10;" width="111.979" height="13.035"/>
			
				<path style="fill:#DADADA;stroke:#3B1151;stroke-width:2.3699;stroke-linecap:round;stroke-linejoin:round;stroke-miterlimit:10;" d="
				M112.891,225.979c0,1.636-1.326,2.962-2.962,2.962H49.101c-1.636,0-2.963-1.326-2.963-2.962l0,0c0-1.636,1.327-2.962,2.963-2.962
				h60.828C111.564,223.017,112.891,224.343,112.891,225.979L112.891,225.979z"/>
			
				<line style="fill:none;stroke:#D63051;stroke-width:2.3699;stroke-linecap:round;stroke-linejoin:round;stroke-miterlimit:10;" x1="49.691" y1="225.979" x2="74.971" y2="225.979"/>
			
				<path style="fill:#DADADA;stroke:#3B1151;stroke-width:2.3699;stroke-linecap:round;stroke-linejoin:round;stroke-miterlimit:10;" d="
				M126.121,225.979c0,1.8-1.458,3.259-3.257,3.259c-1.801,0-3.259-1.458-3.259-3.259c0-1.8,1.458-3.258,3.259-3.258
				C124.663,222.721,126.121,224.179,126.121,225.979z"/>
			
				<path style="fill:#DADADA;stroke:#3B1151;stroke-width:2.3699;stroke-linecap:round;stroke-linejoin:round;stroke-miterlimit:10;" d="
				M137.577,225.979c0,1.8-1.459,3.259-3.259,3.259c-1.8,0-3.259-1.458-3.259-3.259c0-1.8,1.459-3.258,3.259-3.258
				C136.118,222.721,137.577,224.179,137.577,225.979z"/>
			
				<path style="fill:#DADADA;stroke:#3B1151;stroke-width:2.3699;stroke-linecap:round;stroke-linejoin:round;stroke-miterlimit:10;" d="
				M149.032,225.979c0,1.8-1.46,3.259-3.259,3.259c-1.8,0-3.259-1.458-3.259-3.259c0-1.8,1.459-3.258,3.259-3.258
				C147.572,222.721,149.032,224.179,149.032,225.979z"/>
		</g>
		<g>
			<g>
				
					<path style="fill:#FFFFFF;stroke:#3B1151;stroke-width:1.4393;stroke-linecap:round;stroke-linejoin:round;stroke-miterlimit:10;" d="
					M322.701,269.065c0,2.385-1.933,4.318-4.318,4.318H151.419c-2.385,0-4.317-1.933-4.317-4.318V166.632
					c0-2.385,1.933-4.318,4.317-4.318h166.964c2.386,0,4.318,1.934,4.318,4.318V269.065z"/>
				
					<rect x="152.619" y="168.311" style="fill:#45BABD;stroke:#3B1151;stroke-width:1.4393;stroke-linecap:round;stroke-linejoin:round;stroke-miterlimit:10;" width="164.565" height="89.719"/>
				<path style="opacity:0.5;fill:#C4D4DE;" d="M216.769,209.405c27.395,21.85,64.234,30.445,98.856,25.842v-65.608H193.174
					C194.864,185.3,204.172,199.356,216.769,209.405z"/>
				<polygon style="fill:#ABB9C1;" points="155.736,254.672 155.736,168.311 152.619,168.311 152.619,258.031 317.185,258.031 
					317.185,254.672 				"/>
				
					<line style="fill:none;stroke:#3B1151;stroke-width:1.4393;stroke-linecap:round;stroke-linejoin:round;stroke-miterlimit:10;" x1="282.639" y1="265.588" x2="286.957" y2="265.588"/>
				
					<line style="fill:none;stroke:#3B1151;stroke-width:1.4393;stroke-linecap:round;stroke-linejoin:round;stroke-miterlimit:10;" x1="291.275" y1="265.588" x2="294.514" y2="265.588"/>
				
					<line style="fill:none;stroke:#3B1151;stroke-width:1.4393;stroke-linecap:round;stroke-linejoin:round;stroke-miterlimit:10;" x1="299.911" y1="265.588" x2="302.431" y2="265.588"/>
				
					<line style="fill:none;stroke:#3B1151;stroke-width:1.4393;stroke-linecap:round;stroke-linejoin:round;stroke-miterlimit:10;" x1="308.188" y1="265.588" x2="313.225" y2="265.588"/>
				
					<rect x="221.827" y="273.384" style="fill:#CCCCCC;stroke:#3B1151;stroke-width:1.4393;stroke-linecap:round;stroke-linejoin:round;stroke-miterlimit:10;" width="26.147" height="14.875"/>
				
					<path style="fill:#FFFFFF;stroke:#3B1151;stroke-width:1.4393;stroke-linecap:round;stroke-linejoin:round;stroke-miterlimit:10;" d="
					M265.367,295.695h-60.932c0,0-0.001-7.437,11.274-7.437c11.275,0,27.707,0,37.422,0
					C262.849,288.258,265.367,295.695,265.367,295.695z"/>
			</g>
			<g>
				
					<path style="fill:none;stroke:#3B1151;stroke-width:1.4393;stroke-linecap:round;stroke-linejoin:round;stroke-miterlimit:10;" d="
					M274.09,309.913v-14.377c0-3.961,3.242-7.202,7.203-7.202h59.788c3.96,0,7.201,3.241,7.201,7.202v45.169"/>
				<g>
					
						<path style="fill:#CACACA;stroke:#3B1151;stroke-width:1.4393;stroke-linecap:round;stroke-linejoin:round;stroke-miterlimit:10;" d="
						M318.338,372.415c0,2.384-1.934,4.317-4.318,4.317H150.654c-2.385,0-4.317-1.933-4.317-4.317v-52.427
						c0-2.385,1.933-4.318,4.317-4.318H314.02c2.385,0,4.318,1.933,4.318,4.318V372.415z"/>
					
						<path style="fill:#FFFFFF;stroke:#3B1151;stroke-width:1.4393;stroke-linecap:round;stroke-linejoin:round;stroke-miterlimit:10;" d="
						M318.338,366.657c0,2.386-1.934,4.318-4.318,4.318H150.654c-2.385,0-4.317-1.932-4.317-4.318v-52.426
						c0-2.384,1.933-4.318,4.317-4.318H314.02c2.385,0,4.318,1.934,4.318,4.318V366.657z"/>
					
						<rect x="151.239" y="314.121" style="fill:#FFFFFF;stroke:#3B1151;stroke-width:1.4393;stroke-linecap:round;stroke-linejoin:round;stroke-miterlimit:10;" width="6.116" height="3.779"/>
					
						<rect x="165.125" y="314.121" style="fill:#FFFFFF;stroke:#3B1151;stroke-width:1.4393;stroke-linecap:round;stroke-linejoin:round;stroke-miterlimit:10;" width="6.117" height="3.779"/>
					
						<rect x="174.09" y="314.121" style="fill:#FFFFFF;stroke:#3B1151;stroke-width:1.4393;stroke-linecap:round;stroke-linejoin:round;stroke-miterlimit:10;" width="6.115" height="3.779"/>
					
						<rect x="183.053" y="314.121" style="fill:#FFFFFF;stroke:#3B1151;stroke-width:1.4393;stroke-linecap:round;stroke-linejoin:round;stroke-miterlimit:10;" width="6.119" height="3.779"/>
					
						<rect x="192.017" y="314.121" style="fill:#FFFFFF;stroke:#3B1151;stroke-width:1.4393;stroke-linecap:round;stroke-linejoin:round;stroke-miterlimit:10;" width="6.117" height="3.779"/>
					
						<rect x="206.898" y="314.121" style="fill:#FFFFFF;stroke:#3B1151;stroke-width:1.4393;stroke-linecap:round;stroke-linejoin:round;stroke-miterlimit:10;" width="6.117" height="3.779"/>
					
						<rect x="215.862" y="314.121" style="fill:#FFFFFF;stroke:#3B1151;stroke-width:1.4393;stroke-linecap:round;stroke-linejoin:round;stroke-miterlimit:10;" width="6.117" height="3.779"/>
					
						<rect x="224.826" y="314.121" style="fill:#FFFFFF;stroke:#3B1151;stroke-width:1.4393;stroke-linecap:round;stroke-linejoin:round;stroke-miterlimit:10;" width="6.117" height="3.779"/>
					
						<rect x="233.789" y="314.121" style="fill:#FFFFFF;stroke:#3B1151;stroke-width:1.4393;stroke-linecap:round;stroke-linejoin:round;stroke-miterlimit:10;" width="6.118" height="3.779"/>
					
						<rect x="247.2" y="314.121" style="fill:#FFFFFF;stroke:#3B1151;stroke-width:1.4393;stroke-linecap:round;stroke-linejoin:round;stroke-miterlimit:10;" width="6.117" height="3.779"/>
					
						<rect x="256.163" y="314.121" style="fill:#FFFFFF;stroke:#3B1151;stroke-width:1.4393;stroke-linecap:round;stroke-linejoin:round;stroke-miterlimit:10;" width="6.117" height="3.779"/>
					
						<rect x="265.127" y="314.121" style="fill:#FFFFFF;stroke:#3B1151;stroke-width:1.4393;stroke-linecap:round;stroke-linejoin:round;stroke-miterlimit:10;" width="6.118" height="3.779"/>
					
						<rect x="274.09" y="314.121" style="fill:#FFFFFF;stroke:#3B1151;stroke-width:1.4393;stroke-linecap:round;stroke-linejoin:round;stroke-miterlimit:10;" width="6.117" height="3.779"/>
					
						<rect x="287.861" y="314.121" style="fill:#FFFFFF;stroke:#3B1151;stroke-width:1.4393;stroke-linecap:round;stroke-linejoin:round;stroke-miterlimit:10;" width="6.117" height="3.779"/>
					
						<rect x="296.824" y="314.121" style="fill:#FFFFFF;stroke:#3B1151;stroke-width:1.4393;stroke-linecap:round;stroke-linejoin:round;stroke-miterlimit:10;" width="6.117" height="3.779"/>
					
						<rect x="305.789" y="314.121" style="fill:#FFFFFF;stroke:#3B1151;stroke-width:1.4393;stroke-linecap:round;stroke-linejoin:round;stroke-miterlimit:10;" width="6.117" height="3.779"/>
					
						<rect x="151.239" y="323.117" style="fill:#FFFFFF;stroke:#3B1151;stroke-width:1.4393;stroke-linecap:round;stroke-linejoin:round;stroke-miterlimit:10;" width="6.116" height="6.118"/>
					
						<rect x="160.596" y="323.117" style="fill:#FFFFFF;stroke:#3B1151;stroke-width:1.4393;stroke-linecap:round;stroke-linejoin:round;stroke-miterlimit:10;" width="6.116" height="6.118"/>
					
						<rect x="169.951" y="323.117" style="fill:#FFFFFF;stroke:#3B1151;stroke-width:1.4393;stroke-linecap:round;stroke-linejoin:round;stroke-miterlimit:10;" width="6.117" height="6.118"/>
					
						<rect x="179.307" y="323.117" style="fill:#FFFFFF;stroke:#3B1151;stroke-width:1.4393;stroke-linecap:round;stroke-linejoin:round;stroke-miterlimit:10;" width="6.117" height="6.118"/>
					
						<rect x="188.662" y="323.117" style="fill:#FFFFFF;stroke:#3B1151;stroke-width:1.4393;stroke-linecap:round;stroke-linejoin:round;stroke-miterlimit:10;" width="6.117" height="6.118"/>
					
						<rect x="198.019" y="323.117" style="fill:#FFFFFF;stroke:#3B1151;stroke-width:1.4393;stroke-linecap:round;stroke-linejoin:round;stroke-miterlimit:10;" width="6.117" height="6.118"/>
					
						<rect x="207.373" y="323.117" style="fill:#FFFFFF;stroke:#3B1151;stroke-width:1.4393;stroke-linecap:round;stroke-linejoin:round;stroke-miterlimit:10;" width="6.117" height="6.118"/>
					
						<rect x="216.73" y="323.117" style="fill:#FFFFFF;stroke:#3B1151;stroke-width:1.4393;stroke-linecap:round;stroke-linejoin:round;stroke-miterlimit:10;" width="6.117" height="6.118"/>
					
						<rect x="226.085" y="323.117" style="fill:#FFFFFF;stroke:#3B1151;stroke-width:1.4393;stroke-linecap:round;stroke-linejoin:round;stroke-miterlimit:10;" width="6.117" height="6.118"/>
					
						<rect x="235.441" y="323.117" style="fill:#FFFFFF;stroke:#3B1151;stroke-width:1.4393;stroke-linecap:round;stroke-linejoin:round;stroke-miterlimit:10;" width="6.117" height="6.118"/>
					
						<rect x="287.47" y="323.117" style="fill:#FFFFFF;stroke:#3B1151;stroke-width:1.4393;stroke-linecap:round;stroke-linejoin:round;stroke-miterlimit:10;" width="6.118" height="4.276"/>
					
						<rect x="296.824" y="323.117" style="fill:#FFFFFF;stroke:#3B1151;stroke-width:1.4393;stroke-linecap:round;stroke-linejoin:round;stroke-miterlimit:10;" width="6.117" height="4.276"/>
					
						<rect x="306.181" y="323.117" style="fill:#FFFFFF;stroke:#3B1151;stroke-width:1.4393;stroke-linecap:round;stroke-linejoin:round;stroke-miterlimit:10;" width="6.118" height="4.276"/>
					
						<rect x="287.47" y="330.717" style="fill:#FFFFFF;stroke:#3B1151;stroke-width:1.4393;stroke-linecap:round;stroke-linejoin:round;stroke-miterlimit:10;" width="6.118" height="4.275"/>
					
						<rect x="296.824" y="330.717" style="fill:#FFFFFF;stroke:#3B1151;stroke-width:1.4393;stroke-linecap:round;stroke-linejoin:round;stroke-miterlimit:10;" width="6.117" height="4.275"/>
					
						<rect x="306.181" y="330.717" style="fill:#FFFFFF;stroke:#3B1151;stroke-width:1.4393;stroke-linecap:round;stroke-linejoin:round;stroke-miterlimit:10;" width="6.118" height="4.275"/>
					
						<rect x="287.47" y="351.095" style="fill:#FFFFFF;stroke:#3B1151;stroke-width:1.4393;stroke-linecap:round;stroke-linejoin:round;stroke-miterlimit:10;" width="6.118" height="6.117"/>
					
						<rect x="296.824" y="351.095" style="fill:#FFFFFF;stroke:#3B1151;stroke-width:1.4393;stroke-linecap:round;stroke-linejoin:round;stroke-miterlimit:10;" width="6.117" height="6.117"/>
					
						<rect x="306.181" y="351.095" style="fill:#FFFFFF;stroke:#3B1151;stroke-width:1.4393;stroke-linecap:round;stroke-linejoin:round;stroke-miterlimit:10;" width="6.118" height="6.117"/>
					
						<rect x="287.47" y="341.704" style="fill:#FFFFFF;stroke:#3B1151;stroke-width:1.4393;stroke-linecap:round;stroke-linejoin:round;stroke-miterlimit:10;" width="6.118" height="6.117"/>
					
						<rect x="296.824" y="341.704" style="fill:#FFFFFF;stroke:#3B1151;stroke-width:1.4393;stroke-linecap:round;stroke-linejoin:round;stroke-miterlimit:10;" width="6.117" height="6.117"/>
					
						<rect x="306.181" y="341.704" style="fill:#FFFFFF;stroke:#3B1151;stroke-width:1.4393;stroke-linecap:round;stroke-linejoin:round;stroke-miterlimit:10;" width="6.118" height="6.117"/>
					
						<rect x="287.47" y="359.911" style="fill:#FFFFFF;stroke:#3B1151;stroke-width:1.4393;stroke-linecap:round;stroke-linejoin:round;stroke-miterlimit:10;" width="6.118" height="6.117"/>
					
						<rect x="296.824" y="359.911" style="fill:#FFFFFF;stroke:#3B1151;stroke-width:1.4393;stroke-linecap:round;stroke-linejoin:round;stroke-miterlimit:10;" width="6.117" height="6.117"/>
					
						<rect x="306.181" y="359.911" style="fill:#FFFFFF;stroke:#3B1151;stroke-width:1.4393;stroke-linecap:round;stroke-linejoin:round;stroke-miterlimit:10;" width="6.118" height="6.117"/>
					
						<rect x="244.797" y="323.117" style="fill:#FFFFFF;stroke:#3B1151;stroke-width:1.4393;stroke-linecap:round;stroke-linejoin:round;stroke-miterlimit:10;" width="6.117" height="6.118"/>
					
						<rect x="254.152" y="323.117" style="fill:#FFFFFF;stroke:#3B1151;stroke-width:1.4393;stroke-linecap:round;stroke-linejoin:round;stroke-miterlimit:10;" width="6.117" height="6.118"/>
					
						<rect x="263.508" y="323.117" style="fill:#FFFFFF;stroke:#3B1151;stroke-width:1.4393;stroke-linecap:round;stroke-linejoin:round;stroke-miterlimit:10;" width="15.474" height="6.118"/>
					
						<rect x="263.508" y="340.445" style="fill:#FFFFFF;stroke:#3B1151;stroke-width:1.4393;stroke-linecap:round;stroke-linejoin:round;stroke-miterlimit:10;" width="6.117" height="6.117"/>
					
						<rect x="254.152" y="340.445" style="fill:#FFFFFF;stroke:#3B1151;stroke-width:1.4393;stroke-linecap:round;stroke-linejoin:round;stroke-miterlimit:10;" width="6.117" height="6.117"/>
					
						<rect x="244.797" y="340.445" style="fill:#FFFFFF;stroke:#3B1151;stroke-width:1.4393;stroke-linecap:round;stroke-linejoin:round;stroke-miterlimit:10;" width="6.117" height="6.117"/>
					
						<rect x="235.441" y="340.445" style="fill:#FFFFFF;stroke:#3B1151;stroke-width:1.4393;stroke-linecap:round;stroke-linejoin:round;stroke-miterlimit:10;" width="6.117" height="6.117"/>
					
						<rect x="226.085" y="340.445" style="fill:#FFFFFF;stroke:#3B1151;stroke-width:1.4393;stroke-linecap:round;stroke-linejoin:round;stroke-miterlimit:10;" width="6.117" height="6.117"/>
					
						<rect x="216.73" y="340.445" style="fill:#FFFFFF;stroke:#3B1151;stroke-width:1.4393;stroke-linecap:round;stroke-linejoin:round;stroke-miterlimit:10;" width="6.117" height="6.117"/>
					
						<rect x="207.373" y="340.445" style="fill:#FFFFFF;stroke:#3B1151;stroke-width:1.4393;stroke-linecap:round;stroke-linejoin:round;stroke-miterlimit:10;" width="6.117" height="6.117"/>
					
						<rect x="198.019" y="340.445" style="fill:#FFFFFF;stroke:#3B1151;stroke-width:1.4393;stroke-linecap:round;stroke-linejoin:round;stroke-miterlimit:10;" width="6.117" height="6.117"/>
					
						<rect x="188.662" y="340.445" style="fill:#FFFFFF;stroke:#3B1151;stroke-width:1.4393;stroke-linecap:round;stroke-linejoin:round;stroke-miterlimit:10;" width="6.117" height="6.117"/>
					
						<rect x="179.307" y="340.445" style="fill:#FFFFFF;stroke:#3B1151;stroke-width:1.4393;stroke-linecap:round;stroke-linejoin:round;stroke-miterlimit:10;" width="6.117" height="6.117"/>
					
						<rect x="169.951" y="340.445" style="fill:#FFFFFF;stroke:#3B1151;stroke-width:1.4393;stroke-linecap:round;stroke-linejoin:round;stroke-miterlimit:10;" width="6.117" height="6.117"/>
					
						<rect x="151.239" y="340.445" style="fill:#FFFFFF;stroke:#3B1151;stroke-width:1.4393;stroke-linecap:round;stroke-linejoin:round;stroke-miterlimit:10;" width="15.473" height="6.117"/>
					
						<polygon style="fill:#FFFFFF;stroke:#3B1151;stroke-width:1.4393;stroke-linecap:round;stroke-linejoin:round;stroke-miterlimit:10;" points="
						269.266,331.934 269.266,338.051 272.864,338.051 272.864,346.561 278.982,346.561 278.982,331.934 					"/>
					
						<rect x="259.908" y="331.934" style="fill:#FFFFFF;stroke:#3B1151;stroke-width:1.4393;stroke-linecap:round;stroke-linejoin:round;stroke-miterlimit:10;" width="6.119" height="6.117"/>
					
						<rect x="250.554" y="331.934" style="fill:#FFFFFF;stroke:#3B1151;stroke-width:1.4393;stroke-linecap:round;stroke-linejoin:round;stroke-miterlimit:10;" width="6.118" height="6.117"/>
					
						<rect x="241.198" y="331.934" style="fill:#FFFFFF;stroke:#3B1151;stroke-width:1.4393;stroke-linecap:round;stroke-linejoin:round;stroke-miterlimit:10;" width="6.117" height="6.117"/>
					
						<rect x="231.842" y="331.934" style="fill:#FFFFFF;stroke:#3B1151;stroke-width:1.4393;stroke-linecap:round;stroke-linejoin:round;stroke-miterlimit:10;" width="6.118" height="6.117"/>
					
						<rect x="222.487" y="331.934" style="fill:#FFFFFF;stroke:#3B1151;stroke-width:1.4393;stroke-linecap:round;stroke-linejoin:round;stroke-miterlimit:10;" width="6.116" height="6.117"/>
					
						<rect x="213.132" y="331.934" style="fill:#FFFFFF;stroke:#3B1151;stroke-width:1.4393;stroke-linecap:round;stroke-linejoin:round;stroke-miterlimit:10;" width="6.117" height="6.117"/>
					
						<rect x="203.775" y="331.934" style="fill:#FFFFFF;stroke:#3B1151;stroke-width:1.4393;stroke-linecap:round;stroke-linejoin:round;stroke-miterlimit:10;" width="6.118" height="6.117"/>
					
						<rect x="194.42" y="331.934" style="fill:#FFFFFF;stroke:#3B1151;stroke-width:1.4393;stroke-linecap:round;stroke-linejoin:round;stroke-miterlimit:10;" width="6.117" height="6.117"/>
					
						<rect x="185.064" y="331.934" style="fill:#FFFFFF;stroke:#3B1151;stroke-width:1.4393;stroke-linecap:round;stroke-linejoin:round;stroke-miterlimit:10;" width="6.118" height="6.117"/>
					
						<rect x="175.707" y="331.934" style="fill:#FFFFFF;stroke:#3B1151;stroke-width:1.4393;stroke-linecap:round;stroke-linejoin:round;stroke-miterlimit:10;" width="6.117" height="6.117"/>
					
						<rect x="166.353" y="331.934" style="fill:#FFFFFF;stroke:#3B1151;stroke-width:1.4393;stroke-linecap:round;stroke-linejoin:round;stroke-miterlimit:10;" width="6.117" height="6.117"/>
					
						<rect x="151.239" y="331.934" style="fill:#FFFFFF;stroke:#3B1151;stroke-width:1.4393;stroke-linecap:round;stroke-linejoin:round;stroke-miterlimit:10;" width="11.875" height="6.117"/>
					
						<rect x="259.908" y="349.206" style="fill:#FFFFFF;stroke:#3B1151;stroke-width:1.4393;stroke-linecap:round;stroke-linejoin:round;stroke-miterlimit:10;" width="19.073" height="6.117"/>
					
						<rect x="250.554" y="349.206" style="fill:#FFFFFF;stroke:#3B1151;stroke-width:1.4393;stroke-linecap:round;stroke-linejoin:round;stroke-miterlimit:10;" width="6.118" height="6.117"/>
					
						<rect x="241.198" y="349.206" style="fill:#FFFFFF;stroke:#3B1151;stroke-width:1.4393;stroke-linecap:round;stroke-linejoin:round;stroke-miterlimit:10;" width="6.117" height="6.117"/>
					
						<rect x="231.842" y="349.206" style="fill:#FFFFFF;stroke:#3B1151;stroke-width:1.4393;stroke-linecap:round;stroke-linejoin:round;stroke-miterlimit:10;" width="6.118" height="6.117"/>
					
						<rect x="222.487" y="349.206" style="fill:#FFFFFF;stroke:#3B1151;stroke-width:1.4393;stroke-linecap:round;stroke-linejoin:round;stroke-miterlimit:10;" width="6.116" height="6.117"/>
					
						<rect x="213.132" y="349.206" style="fill:#FFFFFF;stroke:#3B1151;stroke-width:1.4393;stroke-linecap:round;stroke-linejoin:round;stroke-miterlimit:10;" width="6.117" height="6.117"/>
					
						<rect x="203.775" y="349.206" style="fill:#FFFFFF;stroke:#3B1151;stroke-width:1.4393;stroke-linecap:round;stroke-linejoin:round;stroke-miterlimit:10;" width="6.118" height="6.117"/>
					
						<rect x="194.42" y="349.206" style="fill:#FFFFFF;stroke:#3B1151;stroke-width:1.4393;stroke-linecap:round;stroke-linejoin:round;stroke-miterlimit:10;" width="6.117" height="6.117"/>
					
						<rect x="185.064" y="349.206" style="fill:#FFFFFF;stroke:#3B1151;stroke-width:1.4393;stroke-linecap:round;stroke-linejoin:round;stroke-miterlimit:10;" width="6.118" height="6.117"/>
					
						<rect x="175.707" y="349.206" style="fill:#FFFFFF;stroke:#3B1151;stroke-width:1.4393;stroke-linecap:round;stroke-linejoin:round;stroke-miterlimit:10;" width="6.117" height="6.117"/>
					
						<rect x="166.353" y="349.206" style="fill:#FFFFFF;stroke:#3B1151;stroke-width:1.4393;stroke-linecap:round;stroke-linejoin:round;stroke-miterlimit:10;" width="6.117" height="6.117"/>
					
						<rect x="151.239" y="349.206" style="fill:#FFFFFF;stroke:#3B1151;stroke-width:1.4393;stroke-linecap:round;stroke-linejoin:round;stroke-miterlimit:10;" width="11.875" height="6.117"/>
					
						<rect x="265.127" y="358.561" style="fill:#FFFFFF;stroke:#3B1151;stroke-width:1.4393;stroke-linecap:round;stroke-linejoin:round;stroke-miterlimit:10;" width="13.854" height="6.118"/>
					
						<rect x="246.956" y="358.561" style="fill:#FFFFFF;stroke:#3B1151;stroke-width:1.4393;stroke-linecap:round;stroke-linejoin:round;stroke-miterlimit:10;" width="6.116" height="6.118"/>
					
						<rect x="237.601" y="358.561" style="fill:#FFFFFF;stroke:#3B1151;stroke-width:1.4393;stroke-linecap:round;stroke-linejoin:round;stroke-miterlimit:10;" width="6.117" height="6.118"/>
					
						<rect x="255.771" y="358.561" style="fill:#FFFFFF;stroke:#3B1151;stroke-width:1.4393;stroke-linecap:round;stroke-linejoin:round;stroke-miterlimit:10;" width="6.118" height="6.118"/>
					
						<rect x="228.244" y="358.561" style="fill:#FFFFFF;stroke:#3B1151;stroke-width:1.4393;stroke-linecap:round;stroke-linejoin:round;stroke-miterlimit:10;" width="6.117" height="6.118"/>
					
						<rect x="181.466" y="358.561" style="fill:#FFFFFF;stroke:#3B1151;stroke-width:1.4393;stroke-linecap:round;stroke-linejoin:round;stroke-miterlimit:10;" width="44.081" height="6.118"/>
					
						<rect x="172.11" y="358.561" style="fill:#FFFFFF;stroke:#3B1151;stroke-width:1.4393;stroke-linecap:round;stroke-linejoin:round;stroke-miterlimit:10;" width="6.117" height="6.118"/>
					
						<rect x="162.756" y="358.561" style="fill:#FFFFFF;stroke:#3B1151;stroke-width:1.4393;stroke-linecap:round;stroke-linejoin:round;stroke-miterlimit:10;" width="6.116" height="6.118"/>
					
						<rect x="151.239" y="358.561" style="fill:#FFFFFF;stroke:#3B1151;stroke-width:1.4393;stroke-linecap:round;stroke-linejoin:round;stroke-miterlimit:10;" width="8.276" height="6.118"/>
				</g>
				<g>
					
						<path style="fill:#CACACA;stroke:#3B1151;stroke-width:1.4393;stroke-linecap:round;stroke-linejoin:round;stroke-miterlimit:10;" d="
						M357.251,365.277c-2.368,5.7-16.46,5.853-18.026,0c-1.528-5.717,0.422-8.811,0.422-11.714c0-2.902-0.422-10.164-0.422-10.164
						l17.033,0.541c0,0,0,6.182,0,8.625C356.258,355.01,359.216,360.546,357.251,365.277z"/>
					
						<path style="fill:#FFFFFF;stroke:#3B1151;stroke-width:1.4393;stroke-linecap:round;stroke-linejoin:round;stroke-miterlimit:10;" d="
						M357.251,362.833c-2.367,5.7-16.46,5.853-18.024,0c-1.529-5.717,1.564-8.505,1.564-11.408c0-2.903-1.564-4.277-1.564-8.026
						c0-7.696,17.031-6.946,17.031,0.541c0,3.208-1.374,4.583-1.374,7.027C354.884,353.411,359.217,358.102,357.251,362.833z"/>
					
						<path style="fill:#CACACA;stroke:#3B1151;stroke-width:1.4393;stroke-linecap:round;stroke-linejoin:round;stroke-miterlimit:10;" d="
						M349.601,348.58c0,0.729-0.59,1.318-1.318,1.318l0,0c-0.728,0-1.317-0.59-1.317-1.318v-3.863c0-0.728,0.59-1.317,1.317-1.317
						l0,0c0.729,0,1.318,0.59,1.318,1.317V348.58z"/>
					
						<line style="fill:none;stroke:#3B1151;stroke-width:1.4393;stroke-linecap:round;stroke-linejoin:round;stroke-miterlimit:10;" x1="346.965" y1="346.648" x2="339.871" y2="346.648"/>
					
						<line style="fill:none;stroke:#3B1151;stroke-width:1.4393;stroke-linecap:round;stroke-linejoin:round;stroke-miterlimit:10;" x1="349.974" y1="346.648" x2="355.681" y2="346.648"/>
					
						<line style="fill:none;stroke:#3B1151;stroke-width:1.4393;stroke-linecap:round;stroke-linejoin:round;stroke-miterlimit:10;" x1="348.282" y1="343.399" x2="348.282" y2="338.011"/>
				</g>
			</g>
			<g>
				
					<rect x="152.619" y="168.311" style="fill:#F6F6F6;stroke:#3B1151;stroke-width:1.4393;stroke-linecap:round;stroke-linejoin:round;stroke-miterlimit:10;" width="164.565" height="8.635"/>
				
					<path style="fill:#F6F6F6;stroke:#3B1151;stroke-width:1.4393;stroke-linecap:round;stroke-linejoin:round;stroke-miterlimit:10;" d="
					M298.712,172.989c0,1.391-1.128,2.519-2.519,2.519c-1.392,0-2.52-1.128-2.52-2.519c0-1.391,1.128-2.518,2.52-2.518
					C297.584,170.47,298.712,171.598,298.712,172.989z"/>
				
					<path style="fill:#F6F6F6;stroke:#3B1151;stroke-width:1.4393;stroke-linecap:round;stroke-linejoin:round;stroke-miterlimit:10;" d="
					M306.028,172.989c0,1.391-1.127,2.519-2.517,2.519c-1.392,0-2.521-1.128-2.521-2.519c0-1.391,1.129-2.518,2.521-2.518
					C304.901,170.47,306.028,171.598,306.028,172.989z"/>
				
					<path style="fill:#F6F6F6;stroke:#3B1151;stroke-width:1.4393;stroke-linecap:round;stroke-linejoin:round;stroke-miterlimit:10;" d="
					M313.346,172.989c0,1.391-1.128,2.519-2.518,2.519c-1.392,0-2.521-1.128-2.521-2.519c0-1.391,1.129-2.518,2.521-2.518
					C312.218,170.47,313.346,171.598,313.346,172.989z"/>
				
					<path style="fill:#F6F6F6;stroke:#3B1151;stroke-width:1.4393;stroke-linecap:round;stroke-linejoin:round;stroke-miterlimit:10;" d="
					M248.814,172.629c0,1.392-1.128,2.52-2.518,2.52h-83.003c-1.391,0-2.519-1.128-2.519-2.52l0,0c0-1.391,1.128-2.519,2.519-2.519
					h83.003C247.686,170.11,248.814,171.238,248.814,172.629L248.814,172.629z"/>
			</g>
			<g>
				
					<rect x="176.819" y="181.266" style="fill:#F6F6F6;stroke:#3B1151;stroke-width:1.4393;stroke-linecap:round;stroke-linejoin:round;stroke-miterlimit:10;" width="116.164" height="73.166"/>
				
					<rect x="176.819" y="181.266" style="fill:#7C5DA4;stroke:#3B1151;stroke-width:1.4393;stroke-linecap:round;stroke-linejoin:round;stroke-miterlimit:10;" width="116.164" height="12.954"/>
				
					<line style="fill:none;stroke:#3B1151;stroke-width:1.4393;stroke-linecap:round;stroke-linejoin:round;stroke-miterlimit:10;" x1="186.415" y1="203.815" x2="218.081" y2="203.815"/>
				
					<line style="fill:none;stroke:#3B1151;stroke-width:1.4393;stroke-linecap:round;stroke-linejoin:round;stroke-miterlimit:10;" x1="222.878" y1="203.815" x2="228.636" y2="203.815"/>
				
					<line style="fill:none;stroke:#3B1151;stroke-width:1.4393;stroke-linecap:round;stroke-linejoin:round;stroke-miterlimit:10;" x1="234.901" y1="203.815" x2="253.496" y2="203.815"/>
				
					<line style="fill:none;stroke:#3B1151;stroke-width:1.4393;stroke-linecap:round;stroke-linejoin:round;stroke-miterlimit:10;" x1="186.415" y1="212.932" x2="198.89" y2="212.932"/>
				
					<line style="fill:none;stroke:#3B1151;stroke-width:1.4393;stroke-linecap:round;stroke-linejoin:round;stroke-miterlimit:10;" x1="205.607" y1="212.932" x2="212.803" y2="212.932"/>
				
					<line style="fill:none;stroke:#3B1151;stroke-width:1.4393;stroke-linecap:round;stroke-linejoin:round;stroke-miterlimit:10;" x1="218.081" y1="212.932" x2="252.518" y2="212.932"/>
				
					<line style="fill:none;stroke:#3B1151;stroke-width:1.4393;stroke-linecap:round;stroke-linejoin:round;stroke-miterlimit:10;" x1="186.415" y1="222.047" x2="196.011" y2="222.047"/>
				
					<line style="fill:none;stroke:#3B1151;stroke-width:1.4393;stroke-linecap:round;stroke-linejoin:round;stroke-miterlimit:10;" x1="202.248" y1="222.047" x2="240.631" y2="222.047"/>
				
					<line style="fill:none;stroke:#3B1151;stroke-width:1.4393;stroke-linecap:round;stroke-linejoin:round;stroke-miterlimit:10;" x1="247.827" y1="222.047" x2="256.463" y2="222.047"/>
				
					<line style="fill:none;stroke:#3B1151;stroke-width:1.4393;stroke-linecap:round;stroke-linejoin:round;stroke-miterlimit:10;" x1="263.478" y1="222.047" x2="285.786" y2="222.047"/>
				
					<line style="fill:none;stroke:#3B1151;stroke-width:1.4393;stroke-linecap:round;stroke-linejoin:round;stroke-miterlimit:10;" x1="186.415" y1="227.684" x2="218.081" y2="227.684"/>
				
					<line style="fill:none;stroke:#3B1151;stroke-width:1.4393;stroke-linecap:round;stroke-linejoin:round;stroke-miterlimit:10;" x1="222.878" y1="227.684" x2="228.636" y2="227.684"/>
				
					<line style="fill:none;stroke:#3B1151;stroke-width:1.4393;stroke-linecap:round;stroke-linejoin:round;stroke-miterlimit:10;" x1="234.901" y1="227.684" x2="270.134" y2="227.684"/>
				
					<line style="fill:none;stroke:#3B1151;stroke-width:1.4393;stroke-linecap:round;stroke-linejoin:round;stroke-miterlimit:10;" x1="275.531" y1="227.684" x2="285.786" y2="227.684"/>
				
					<line style="fill:none;stroke:#3B1151;stroke-width:1.4393;stroke-linecap:round;stroke-linejoin:round;stroke-miterlimit:10;" x1="186.415" y1="236.8" x2="198.89" y2="236.8"/>
				
					<line style="fill:none;stroke:#3B1151;stroke-width:1.4393;stroke-linecap:round;stroke-linejoin:round;stroke-miterlimit:10;" x1="205.607" y1="236.8" x2="212.803" y2="236.8"/>
				
					<line style="fill:none;stroke:#3B1151;stroke-width:1.4393;stroke-linecap:round;stroke-linejoin:round;stroke-miterlimit:10;" x1="218.081" y1="236.8" x2="252.518" y2="236.8"/>
				
					<line style="fill:none;stroke:#3B1151;stroke-width:1.4393;stroke-linecap:round;stroke-linejoin:round;stroke-miterlimit:10;" x1="259.878" y1="236.8" x2="267.074" y2="236.8"/>
				
					<line style="fill:none;stroke:#3B1151;stroke-width:1.4393;stroke-linecap:round;stroke-linejoin:round;stroke-miterlimit:10;" x1="270.134" y1="236.8" x2="285.786" y2="236.8"/>
				
					<line style="fill:none;stroke:#3B1151;stroke-width:1.4393;stroke-linecap:round;stroke-linejoin:round;stroke-miterlimit:10;" x1="186.415" y1="245.915" x2="196.011" y2="245.915"/>
				
					<line style="fill:none;stroke:#3B1151;stroke-width:1.4393;stroke-linecap:round;stroke-linejoin:round;stroke-miterlimit:10;" x1="202.248" y1="245.915" x2="240.631" y2="245.915"/>
				
					<line style="fill:none;stroke:#3B1151;stroke-width:1.4393;stroke-linecap:round;stroke-linejoin:round;stroke-miterlimit:10;" x1="247.827" y1="245.915" x2="256.463" y2="245.915"/>
				
					<line style="fill:none;stroke:#3B1151;stroke-width:1.4393;stroke-linecap:round;stroke-linejoin:round;stroke-miterlimit:10;" x1="263.478" y1="245.915" x2="285.786" y2="245.915"/>
				
					<rect x="257.453" y="200.963" style="fill:#D995C1;stroke:#3B1151;stroke-width:1.4393;stroke-linecap:round;stroke-linejoin:round;stroke-miterlimit:10;" width="29.504" height="16.013"/>
			</g>
		</g>
		<g>
			
				<path style="fill:#AA7CB5;stroke:#3B1151;stroke-width:1.2847;stroke-linecap:round;stroke-linejoin:round;stroke-miterlimit:10;" d="
				M144.704,241.092c0,21.109-17.112,38.222-38.221,38.222c-21.11,0-38.223-17.112-38.223-38.222
				c0-21.108,17.112-38.221,38.223-38.221C127.592,202.871,144.704,219.983,144.704,241.092z"/>
			
				<path style="fill:#FFFFFF;stroke:#3B1151;stroke-width:1.2847;stroke-linecap:round;stroke-linejoin:round;stroke-miterlimit:10;" d="
				M139.725,241.092c0,18.36-14.883,33.243-33.241,33.243c-18.36,0-33.244-14.883-33.244-33.243
				c0-18.359,14.884-33.242,33.244-33.242C124.842,207.85,139.725,222.732,139.725,241.092z"/>
			<path style="fill:#D0EBFC;" d="M111.827,268.991c-18.36,0-33.244-14.883-33.244-33.243c0-7.818,2.706-15.001,7.224-20.676
				c-7.655,6.09-12.567,15.479-12.567,26.02c0,18.36,14.884,33.243,33.244,33.243c10.54,0,19.93-4.912,26.02-12.566
				C126.827,266.286,119.645,268.991,111.827,268.991z"/>
			<path style="fill:#3B1151;" d="M109.506,241.092c0,1.669-1.354,3.023-3.022,3.023c-1.67,0-3.023-1.354-3.023-3.023
				c0-1.669,1.354-3.022,3.023-3.022C108.151,238.07,109.506,239.423,109.506,241.092z"/>
			<path style="fill:#3B1151;" d="M108.133,211.543c0,0.911-0.738,1.65-1.649,1.65c-0.912,0-1.65-0.739-1.65-1.65
				c0-0.912,0.738-1.65,1.65-1.65C107.395,209.893,108.133,210.631,108.133,211.543z"/>
			<path style="fill:#3B1151;" d="M128.488,219.083c-0.266,0.266-0.695,0.266-0.961,0.001c-0.265-0.265-0.265-0.695,0-0.96
				c0.266-0.265,0.695-0.265,0.96,0C128.753,218.389,128.753,218.819,128.488,219.083z"/>
			<path style="fill:#3B1151;" d="M84.585,262.986c-0.266,0.266-0.695,0.266-0.962,0c-0.264-0.264-0.264-0.695,0-0.96
				c0.267-0.265,0.696-0.265,0.962,0C84.851,262.292,84.851,262.722,84.585,262.986z"/>
			<path style="fill:#3B1151;" d="M127.527,262.987c-0.265-0.265-0.265-0.695,0-0.961c0.264-0.265,0.695-0.265,0.96,0
				c0.266,0.266,0.266,0.696,0,0.961C128.223,263.252,127.791,263.252,127.527,262.987z"/>
			<path style="fill:#3B1151;" d="M83.623,219.085c-0.264-0.266-0.266-0.696,0-0.961c0.267-0.266,0.696-0.266,0.962,0
				c0.266,0.265,0.266,0.695,0,0.961C84.319,219.35,83.89,219.35,83.623,219.085z"/>
			<path style="fill:#3B1151;" d="M134.912,229.084c-0.346,0.146-0.745-0.015-0.891-0.36c-0.146-0.345,0.015-0.744,0.36-0.89
				c0.346-0.146,0.743,0.016,0.89,0.36C135.419,228.54,135.258,228.938,134.912,229.084z"/>
			<path style="fill:#3B1151;" d="M77.73,253.276c-0.345,0.146-0.744-0.016-0.891-0.361c-0.146-0.345,0.016-0.744,0.361-0.89
				c0.346-0.146,0.743,0.016,0.889,0.361C78.236,252.732,78.074,253.131,77.73,253.276z"/>
			<path style="fill:#3B1151;" d="M117.526,269.411c-0.146-0.346,0.015-0.744,0.36-0.89c0.346-0.147,0.744,0.015,0.891,0.36
				c0.146,0.346-0.016,0.744-0.36,0.89C118.071,269.918,117.674,269.755,117.526,269.411z"/>
			<path style="fill:#3B1151;" d="M93.335,212.23c-0.147-0.345,0.016-0.744,0.36-0.89c0.346-0.146,0.744,0.016,0.89,0.36
				c0.146,0.346-0.016,0.744-0.36,0.891C93.879,212.736,93.481,212.575,93.335,212.23z"/>
			<path style="fill:#3B1151;" d="M118.534,212.121c-0.144,0.347-0.54,0.512-0.887,0.369c-0.346-0.142-0.512-0.54-0.368-0.887
				c0.145-0.346,0.54-0.511,0.887-0.368C118.513,211.378,118.677,211.775,118.534,212.121z"/>
			<path style="fill:#3B1151;" d="M94.834,269.507c-0.144,0.347-0.54,0.512-0.888,0.369c-0.346-0.143-0.512-0.541-0.368-0.887
				c0.144-0.347,0.54-0.512,0.887-0.369C94.812,268.764,94.977,269.161,94.834,269.507z"/>
			<path style="fill:#3B1151;" d="M134.49,253.033c-0.347-0.143-0.511-0.539-0.369-0.886c0.144-0.347,0.54-0.512,0.887-0.369
				c0.348,0.143,0.512,0.54,0.369,0.887C135.233,253.012,134.837,253.176,134.49,253.033z"/>
			<path style="fill:#3B1151;" d="M77.104,229.333c-0.346-0.143-0.511-0.54-0.368-0.887c0.143-0.347,0.541-0.512,0.886-0.368
				c0.348,0.143,0.513,0.54,0.369,0.887C77.847,229.311,77.45,229.476,77.104,229.333z"/>
			<path style="fill:#3B1151;" d="M108.133,270.642c0,0.912-0.738,1.65-1.649,1.65c-0.912,0-1.65-0.739-1.65-1.65
				s0.738-1.65,1.65-1.65C107.395,268.991,108.133,269.73,108.133,270.642z"/>
			<path style="fill:#3B1151;" d="M136.032,242.743c-0.911,0-1.65-0.739-1.65-1.651c0-0.911,0.739-1.65,1.65-1.65
				c0.912,0,1.65,0.739,1.65,1.65C137.683,242.004,136.944,242.743,136.032,242.743z"/>
			<path style="fill:#3B1151;" d="M76.934,242.743c-0.911,0-1.65-0.739-1.65-1.651c0-0.911,0.739-1.65,1.65-1.65
				c0.911,0,1.649,0.739,1.649,1.65C78.583,242.004,77.845,242.743,76.934,242.743z"/>
			
				<line style="fill:none;stroke:#3B1151;stroke-width:1.9271;stroke-linecap:round;stroke-linejoin:round;stroke-miterlimit:10;" x1="106.483" y1="241.092" x2="106.483" y2="224.069"/>
			
				<line style="fill:none;stroke:#3B1151;stroke-width:1.9271;stroke-linecap:round;stroke-linejoin:round;stroke-miterlimit:10;" x1="106.483" y1="241.092" x2="131.054" y2="241.092"/>
		</g>
		<g>
			
				<path style="fill:#FFFFFF;stroke:#3B1151;stroke-width:2.1586;stroke-linecap:round;stroke-linejoin:round;stroke-miterlimit:10;" d="
				M245.24,92.614c0.115-0.636,0.187-1.288,0.187-1.956c0-6.016-4.877-10.893-10.893-10.893c-0.766,0-1.512,0.081-2.233,0.231
				c-0.761-11.73-10.489-21.018-22.412-21.018c-6.105,0-11.633,2.442-15.686,6.392c-4.368-9.952-14.303-16.906-25.868-16.906
				c-15.599,0-28.243,12.645-28.243,28.242c0,1.037,0.061,2.06,0.17,3.067c-0.057-0.001-0.112-0.009-0.17-0.009
				c-12.418,0-22.484,10.067-22.484,22.486c0,12.418,10.066,22.486,22.484,22.486c11.715,0,93.416,0,102.357,0
				c8.942,0,16.19-7.249,16.19-16.189C258.639,100.559,252.85,93.939,245.24,92.614z"/>
			<g>
				<path style="fill:#C6E8FB;" d="M245.24,92.614c0.115-0.636,0.187-1.288,0.187-1.956c0-6.016-4.877-10.893-10.893-10.893
					c-0.766,0-1.512,0.081-2.233,0.231c-0.761-11.73-10.489-21.018-22.412-21.018c-6.105,0-11.633,2.442-15.686,6.392
					c-4.368-9.952-14.303-16.906-25.868-16.906c-10.553,0-19.748,5.793-24.596,14.367c4.904-4.108,11.223-6.584,18.12-6.584
					c11.564,0,21.5,6.954,25.867,16.906c4.052-3.949,9.58-6.392,15.687-6.392c11.923,0,21.651,9.287,22.411,21.018
					c0.723-0.15,1.467-0.231,2.232-0.231c6.016,0,10.893,4.877,10.893,10.892c0,0.669-0.069,1.321-0.186,1.956
					c7.608,1.326,13.398,7.945,13.398,15.933c0,2.095-0.412,4.091-1.137,5.929c4.565-2.862,7.612-7.926,7.612-13.712
					C258.639,100.559,252.85,93.939,245.24,92.614z"/>
			</g>
			
				<polygon style="fill:#F6A654;stroke:#3B1151;stroke-width:2.1586;stroke-linecap:round;stroke-linejoin:round;stroke-miterlimit:10;" points="
				198.736,116.101 198.736,92.716 177.51,92.716 177.51,116.101 167.975,116.101 188.123,145.603 208.27,116.101 			"/>
		</g>
	</g>
</g>
</svg>
