<?xml version="1.0" encoding="utf-8"?>
<!-- Generator: Adobe Illustrator 27.5.0, SVG Export Plug-In . SVG Version: 6.00 Build 0)  -->
<svg version="1.1" xmlns="http://www.w3.org/2000/svg" xmlns:xlink="http://www.w3.org/1999/xlink" x="0px" y="0px"
	 viewBox="0 0 1122 1122" style="enable-background:new 0 0 1122 1122;" xml:space="preserve">
<g id="Bg">
	<g>
		<g>
			<rect style="fill:#FFFFFF;" width="1122" height="1122"/>
		</g>
	</g>
</g>
<g id="Object">
	<g>
		<path style="fill:#616E7D;" d="M301.548,256.379c-11.892,0-23.531,4.814-31.93,13.226c-8.418,8.413-13.242,20.035-13.242,31.931
			v518.927c0,11.886,4.823,23.519,13.242,31.931c8.4,8.403,20.038,13.227,31.93,13.227h518.904c11.898,0,23.531-4.824,31.937-13.227
			c8.412-8.412,13.236-20.045,13.236-31.931V301.536c0-11.896-4.824-23.518-13.236-31.931c-8.406-8.412-20.038-13.226-31.937-13.226
			H301.548z M421.034,317.471c16.903,0,30.611,13.711,30.611,30.617c0,16.912-13.708,30.62-30.611,30.62
			c-16.916,0-30.63-13.708-30.63-30.62C390.404,331.182,404.118,317.471,421.034,317.471z M327.566,317.471
			c16.921,0,30.611,13.711,30.611,30.617c0,16.912-13.69,30.62-30.611,30.62c-16.898,0-30.605-13.708-30.605-30.62
			C296.961,331.182,310.668,317.471,327.566,317.471z M825.456,804.081H296.961V422.214h528.496V804.081z"/>
		<path style="fill:#FFFFFF;" d="M296.961,804.081h528.496V422.214H296.961V804.081z M729.967,534.252
			c0-1.298,0.532-2.563,1.453-3.48c0.908-0.917,2.173-1.443,3.48-1.443h28.85c1.307,0,2.566,0.53,3.474,1.443
			c0.926,0.917,1.453,2.182,1.453,3.48v97.989h45.59c1.301,0,2.56,0.529,3.468,1.443c0.926,0.917,1.453,2.185,1.453,3.48v24.13
			c0,1.292-0.527,2.563-1.453,3.48c-0.908,0.914-2.167,1.44-3.468,1.44h-79.367c-1.307,0-2.572-0.527-3.48-1.44
			c-0.92-0.917-1.453-2.185-1.453-3.48V534.252z M572.456,534.749c0.164-2.596,2.3-4.611,4.908-4.611h38.273
			c2.191,0,4.115,1.437,4.721,3.534l12.449,42.41l0.036,0.115c2.276,8.531,4.509,17.424,6.585,26.345
			c2.385-9.148,4.872-18.332,7.305-26.65l0.043-0.115l13.557-42.222c0.659-2.04,2.548-3.416,4.684-3.416h37.517
			c2.627,0,4.757,2.043,4.908,4.657l6.972,127.039c0.073,1.349-0.399,2.672-1.344,3.652c-0.92,0.983-2.209,1.541-3.565,1.541
			h-28.087c-2.639,0-4.805-2.094-4.908-4.736l-1.888-48.625l4.908-0.191l-4.908,0.182c-0.224-6.082-0.447-12.773-0.635-19.687
			c-1.852,6.231-3.74,12.337-5.592,17.947l-15.445,49.579c-0.641,2.054-2.548,3.452-4.703,3.452h-22.429
			c-2.215,0-4.152-1.471-4.738-3.613l-13.575-49.188c-1.235-4.431-2.476-9.181-3.704-14.047c-0.224,5.565-0.496,11.009-0.793,16.041
			l-2.252,48.189c-0.109,2.621-2.282,4.697-4.908,4.697h-26.586c-1.338,0-2.663-0.572-3.589-1.559
			c-0.926-0.98-1.411-2.333-1.326-3.68L572.456,534.749z M450.453,535.06c0-1.298,0.526-2.563,1.458-3.477
			c0.902-0.92,2.167-1.447,3.474-1.447h97.619c1.301,0,2.573,0.526,3.474,1.447c0.926,0.913,1.452,2.178,1.452,3.477v24.127
			c0,1.292-0.526,2.563-1.452,3.48c-0.902,0.914-2.173,1.437-3.474,1.437h-29.74v97.995c0,1.298-0.532,2.566-1.453,3.48
			c-0.908,0.92-2.173,1.446-3.48,1.446h-28.844c-1.307,0-2.572-0.527-3.48-1.446c-0.92-0.914-1.453-2.182-1.453-3.48v-97.995
			h-29.171c-1.308,0-2.573-0.523-3.474-1.437c-0.932-0.917-1.458-2.182-1.458-3.48V535.06z M311.667,535.06
			c0-1.298,0.527-2.563,1.459-3.477c0.902-0.92,2.167-1.447,3.474-1.447h28.85c1.301,0,2.566,0.526,3.474,1.447
			c0.92,0.913,1.452,2.178,1.452,3.477v43.893h37.444V535.06c0-1.298,0.533-2.563,1.453-3.477c0.908-0.92,2.173-1.447,3.48-1.447
			h28.645c1.295,0,2.566,0.526,3.468,1.447c0.931,0.913,1.452,2.178,1.452,3.477v127.039c0,1.298-0.521,2.566-1.452,3.48
			c-0.902,0.92-2.173,1.446-3.468,1.446h-28.645c-1.307,0-2.572-0.527-3.48-1.446c-0.92-0.914-1.453-2.182-1.453-3.48v-48.24
			h-37.444v48.24c0,1.298-0.532,2.566-1.452,3.48c-0.908,0.92-2.173,1.446-3.474,1.446h-28.85c-1.307,0-2.572-0.527-3.474-1.446
			c-0.932-0.914-1.459-2.182-1.459-3.48V535.06z"/>
		<path style="fill:#AAD4C8;" d="M390.404,348.088c0,16.912,13.714,30.62,30.63,30.62c16.903,0,30.611-13.708,30.611-30.62
			c0-16.906-13.708-30.617-30.611-30.617C404.118,317.471,390.404,331.182,390.404,348.088z"/>
		<path style="fill:#82BFAB;" d="M296.961,348.088c0,16.912,13.708,30.62,30.605,30.62c16.921,0,30.611-13.708,30.611-30.62
			c0-16.906-13.69-30.617-30.611-30.617C310.668,317.471,296.961,331.182,296.961,348.088z"/>
		<path style="fill:#616E7D;" d="M389.273,665.58c0.908,0.92,2.173,1.446,3.48,1.446h28.645c1.295,0,2.566-0.527,3.468-1.446
			c0.931-0.914,1.452-2.182,1.452-3.48V535.06c0-1.298-0.521-2.563-1.452-3.477c-0.902-0.92-2.173-1.447-3.468-1.447h-28.645
			c-1.307,0-2.572,0.526-3.48,1.447c-0.92,0.913-1.453,2.178-1.453,3.477v43.893h-37.444V535.06c0-1.298-0.532-2.563-1.452-3.477
			c-0.908-0.92-2.173-1.447-3.474-1.447h-28.85c-1.307,0-2.572,0.526-3.474,1.447c-0.932,0.913-1.459,2.178-1.459,3.477v127.039
			c0,1.298,0.527,2.566,1.459,3.48c0.902,0.92,2.167,1.446,3.474,1.446h28.85c1.301,0,2.566-0.527,3.474-1.446
			c0.92-0.914,1.452-2.182,1.452-3.48v-48.24h37.444v48.24C387.82,663.398,388.353,664.666,389.273,665.58z"/>
		<path style="fill:#616E7D;" d="M486.009,665.58c0.908,0.92,2.173,1.446,3.48,1.446h28.844c1.307,0,2.572-0.527,3.48-1.446
			c0.92-0.914,1.453-2.182,1.453-3.48v-97.995h29.74c1.301,0,2.573-0.523,3.474-1.437c0.926-0.917,1.452-2.188,1.452-3.48V535.06
			c0-1.298-0.526-2.563-1.452-3.477c-0.902-0.92-2.173-1.447-3.474-1.447h-97.619c-1.308,0-2.573,0.526-3.474,1.447
			c-0.932,0.913-1.458,2.178-1.458,3.477v24.127c0,1.298,0.526,2.563,1.458,3.48c0.902,0.914,2.167,1.437,3.474,1.437h29.171v97.995
			C484.556,663.398,485.089,664.666,486.009,665.58z"/>
		<path style="fill:#616E7D;" d="M676.509,662.29c0.103,2.642,2.27,4.736,4.908,4.736h28.087c1.356,0,2.645-0.557,3.565-1.541
			c0.944-0.98,1.417-2.303,1.344-3.652l-6.972-127.039c-0.151-2.614-2.281-4.657-4.908-4.657h-37.517
			c-2.136,0-4.024,1.376-4.684,3.416l-13.557,42.222l-0.043,0.115c-2.432,8.319-4.92,17.502-7.305,26.65
			c-2.076-8.921-4.309-17.814-6.585-26.345l-0.036-0.115l-12.449-42.41c-0.605-2.097-2.53-3.534-4.721-3.534h-38.273
			c-2.608,0-4.745,2.015-4.908,4.611l-8.11,127.039c-0.085,1.347,0.399,2.7,1.326,3.68c0.926,0.987,2.251,1.559,3.589,1.559h26.586
			c2.626,0,4.799-2.076,4.908-4.697l2.252-48.189c0.296-5.032,0.569-10.477,0.793-16.041c1.228,4.866,2.469,9.616,3.704,14.047
			l13.575,49.188c0.587,2.142,2.523,3.613,4.738,3.613h22.429c2.154,0,4.061-1.398,4.703-3.452l15.445-49.579
			c1.852-5.61,3.74-11.717,5.592-17.947c0.188,6.914,0.411,13.605,0.635,19.687l4.908-0.182l-4.908,0.191L676.509,662.29z"/>
		<path style="fill:#616E7D;" d="M768.676,632.242v-97.989c0-1.298-0.527-2.563-1.453-3.48c-0.908-0.914-2.167-1.443-3.474-1.443
			h-28.85c-1.307,0-2.572,0.527-3.48,1.443c-0.92,0.917-1.453,2.182-1.453,3.48v127.042c0,1.295,0.532,2.563,1.453,3.48
			c0.908,0.914,2.173,1.44,3.48,1.44h79.367c1.301,0,2.56-0.527,3.468-1.44c0.926-0.917,1.453-2.188,1.453-3.48v-24.13
			c0-1.295-0.527-2.563-1.453-3.48c-0.908-0.914-2.167-1.443-3.468-1.443H768.676z"/>
	</g>
</g>
</svg>
